<svg xmlns="http://www.w3.org/2000/svg" viewBox="0 0 400 300" width="400" height="300">
	<style>
		tspan { white-space:pre }
		.shp0 { fill: #000000 } 
	</style>
	<path id="Shape 1" class="shp0" d="M6.5 25.11L11.5 25.11L11.5 281.53L6.5 281.53L6.5 25.11ZM9 88.61L9 83.61L107.25 83.61L107.25 88.61L9 88.61ZM108 207.61L108 212.61L11 212.61L11 207.61L108 207.61ZM101.23 85.88L104.77 82.34L172.26 149.83L168.72 153.37L101.23 85.88ZM166.23 152.23L169.77 155.77L110.11 215.42L106.58 211.89L166.23 152.23ZM105.77 85.88L102.23 82.34L167.3 17.27L170.84 20.81L105.77 85.88ZM173.77 280.34L170.23 283.88L98.12 211.77L101.66 208.23L173.77 280.34ZM167 22.61L167 17.61L202.9 17.61L202.9 22.61L167 22.61ZM204 278.61L204 283.61L174 283.61L174 278.61L204 278.61Z" />
	<path id="Shape 1 copy" class="shp0" d="M387.14 24.84L392 24.84L392 281.26L387.14 281.26L387.14 24.84ZM389.57 83.41L389.57 88.27L294.06 88.27L294.06 83.41L389.57 83.41ZM293.33 212.27L293.33 207.41L387.63 207.41L387.63 212.27L293.33 212.27ZM296.44 82.14L299.93 85.53L234.32 153.02L230.83 149.63L296.44 82.14ZM233.25 155.42L236.74 152.03L294.73 211.69L291.25 215.08L233.25 155.42ZM298.96 82.14L295.47 85.53L232.22 20.46L235.7 17.07L298.96 82.14ZM232.85 283.53L229.37 280.14L299.47 208.03L302.95 211.42L232.85 283.53ZM235.97 17.41L235.97 22.27L201.07 22.27L201.07 17.41L235.97 17.41ZM200 283.27L200 278.41L229.16 278.41L229.16 283.27L200 283.27Z" />
</svg>